<?xml version="1.0" encoding="UTF-8" standalone="no"?>
<!-- Generator: Adobe Illustrator 16.0.0, SVG Export Plug-In . SVG Version: 6.00 Build 0)  -->

<svg
   xmlns:dc="http://purl.org/dc/elements/1.1/"
   xmlns:cc="http://creativecommons.org/ns#"
   xmlns:rdf="http://www.w3.org/1999/02/22-rdf-syntax-ns#"
   xmlns:svg="http://www.w3.org/2000/svg"
   xmlns="http://www.w3.org/2000/svg"
   xmlns:xlink="http://www.w3.org/1999/xlink"
   xmlns:sodipodi="http://sodipodi.sourceforge.net/DTD/sodipodi-0.dtd"
   xmlns:inkscape="http://www.inkscape.org/namespaces/inkscape"
   version="1.1"
   id="Layer_1"
   x="0px"
   y="0px"
   width="1319.017"
   height="601.60028"
   viewBox="0 0 1319.017 601.60028"
   enable-background="new 0 0 1336 613"
   xml:space="preserve"
   sodipodi:docname="solarMD_logoFull.svg"
   inkscape:version="0.92.4 (5da689c313, 2019-01-14)"><metadata
   id="metadata45"><rdf:RDF><cc:Work
       rdf:about=""><dc:format>image/svg+xml</dc:format><dc:type
         rdf:resource="http://purl.org/dc/dcmitype/StillImage" /><dc:title></dc:title></cc:Work></rdf:RDF></metadata><defs
   id="defs43" /><sodipodi:namedview
   pagecolor="#ffffff"
   bordercolor="#666666"
   borderopacity="1"
   objecttolerance="10"
   gridtolerance="10"
   guidetolerance="10"
   inkscape:pageopacity="0"
   inkscape:pageshadow="2"
   inkscape:window-width="1920"
   inkscape:window-height="1137"
   id="namedview41"
   showgrid="false"
   fit-margin-top="0"
   fit-margin-left="0"
   fit-margin-right="0"
   fit-margin-bottom="0"
   inkscape:zoom="1"
   inkscape:cx="800.8629"
   inkscape:cy="252.84243"
   inkscape:window-x="3832"
   inkscape:window-y="970"
   inkscape:window-maximized="1"
   inkscape:current-layer="g38" />
<g
   id="g38"
   transform="translate(-8.4920258,-5.9169094)">
	<defs
   id="defs3">
		<rect
   id="SVGID_1_"
   x="-332"
   y="-248.56599"
   width="2000"
   height="1110.566" />
	</defs>
	<clipPath
   id="SVGID_2_">
		<use
   xlink:href="#SVGID_1_"
   overflow="visible"
   id="use5"
   style="overflow:visible"
   x="0"
   y="0"
   width="100%"
   height="100%" />
	</clipPath>
	<path
   clip-path="url(#SVGID_2_)"
   d="M 486.852,417.075 C 452.58,386.772 433.212,343.803 431.21,297.27 429.345,253.849 443.359,211.523 470.793,177.1 l 33.135,-37.448 c 3.609,-4.103 3.23,-10.346 -0.878,-13.973 -4.072,-3.638 -10.333,-3.23 -13.972,0.866 l -86.096,97.302 c -39.776,44.985 -35.571,113.917 9.413,153.711 l 181.238,160.355 c 1.125,1.01 2.424,1.684 3.783,2.093 3.561,1.034 7.573,0.012 10.195,-2.948 3.609,-4.078 3.242,-10.356 -0.866,-13.966 0,0 -118.871,-105.091 -119.893,-106.017"
   id="path8"
   inkscape:connector-curvature="0"
   style="fill:#ffb700" />
	<path
   clip-path="url(#SVGID_2_)"
   d="m 531.867,81.633 c -5.888,1.095 -9.792,6.773 -8.691,12.668 1.083,5.894 6.766,9.798 12.661,8.697 5.918,-1.107 9.804,-6.773 8.703,-12.668 -1.094,-5.906 -6.76,-9.809 -12.673,-8.697"
   id="path10"
   inkscape:connector-curvature="0"
   style="fill:#ffb700" />
	<path
   clip-path="url(#SVGID_2_)"
   d="m 198.924,484.285 c 30.302,-34.261 73.266,-53.652 119.803,-55.638 43.432,-1.864 85.741,12.15 120.169,39.577 l 37.46,33.129 c 4.091,3.621 10.334,3.226 13.961,-0.865 3.639,-4.077 3.242,-10.333 -0.866,-13.979 L 392.15,400.414 C 347.177,360.632 278.229,364.842 238.453,409.819 L 78.108,591.059 c -1.029,1.131 -1.702,2.443 -2.111,3.79 -1.029,3.561 0,7.566 2.953,10.201 4.084,3.597 10.357,3.224 13.978,-0.878 0,0 105.076,-118.865 105.996,-119.887"
   id="path12"
   inkscape:connector-curvature="0"
   style="fill:#ffb700" />
	<path
   clip-path="url(#SVGID_2_)"
   d="m 534.369,529.287 c -1.095,-5.87 -6.773,-9.768 -12.673,-8.686 -5.895,1.095 -9.786,6.772 -8.692,12.68 1.101,5.906 6.767,9.792 12.673,8.709 5.901,-1.107 9.793,-6.772 8.692,-12.703"
   id="path14"
   inkscape:connector-curvature="0"
   style="fill:#ffb700" />
	<path
   clip-path="url(#SVGID_2_)"
   d="m 131.727,196.365 c 34.26,30.309 53.634,73.266 55.643,119.806 1.853,43.427 -12.15,85.735 -39.583,120.176 l -33.136,37.447 c -3.609,4.103 -3.23,10.335 0.872,13.968 4.085,3.632 10.34,3.235 13.973,-0.866 l 86.101,-97.308 c 39.776,-44.967 35.56,-113.917 -9.413,-153.699 L 24.956,75.534 c -1.131,-1.022 -2.436,-1.691 -3.796,-2.1 -3.561,-1.028 -7.572,-0.006 -10.189,2.954 -3.603,4.089 -3.248,10.357 0.866,13.978 -10e-4,0 118.861,105.079 119.89,105.999"
   id="path16"
   inkscape:connector-curvature="0"
   style="fill:#ffb700" />
	<path
   clip-path="url(#SVGID_2_)"
   d="m 86.721,531.813 c 5.883,-1.095 9.774,-6.784 8.691,-12.68 -1.1,-5.895 -6.779,-9.792 -12.673,-8.697 -5.907,1.106 -9.804,6.773 -8.703,12.68 1.1,5.906 6.767,9.792 12.685,8.697"
   id="path18"
   inkscape:connector-curvature="0"
   style="fill:#ffb700" />
	<path
   clip-path="url(#SVGID_2_)"
   d="m 419.655,129.168 c -30.309,34.254 -73.266,53.622 -119.815,55.625 -43.421,1.865 -85.735,-12.144 -120.17,-39.577 l -37.448,-33.142 c -4.102,-3.597 -10.339,-3.23 -13.966,0.884 -3.639,4.078 -3.23,10.34 0.86,13.967 l 97.307,86.107 c 44.979,39.771 113.914,35.56 153.709,-9.413 L 540.48,22.375 c 1.023,-1.13 1.69,-2.423 2.093,-3.789 1.041,-3.561 0.024,-7.573 -2.941,-10.177 -4.09,-3.621 -10.363,-3.26 -13.979,0.848 0,0 -105.09,118.871 -105.998,119.911"
   id="path20"
   inkscape:connector-curvature="0"
   style="fill:#ffb700" />
	<path
   clip-path="url(#SVGID_2_)"
   d="m 84.213,84.147 c 1.101,5.889 6.766,9.786 12.661,8.686 5.903,-1.083 9.795,-6.773 8.695,-12.662 -1.102,-5.918 -6.773,-9.809 -12.665,-8.709 -5.906,1.101 -9.792,6.767 -8.691,12.685"
   id="path22"
   inkscape:connector-curvature="0"
   style="fill:#ffb700" />
	<path
   clip-path="url(#SVGID_2_)"
   d="m 598.84,267.203 c 12.789,0 24.407,3.163 35.36,6.445 l 13.193,3.567 4.639,-22.81 -12.132,-3.368 c -14.321,-4.358 -25.597,-6.881 -40.857,-6.881 -21.008,0 -42.206,11.433 -42.206,36.973 0,17.967 12.164,30.459 33.382,34.275 l 21.598,3.834 c 14.059,2.313 15.236,7.189 15.236,11.987 0,10.846 -10.091,13.123 -18.555,13.123 -12.302,0 -23.715,-2.945 -35.185,-6.193 l -13.029,-3.984 -5.065,22.988 12.49,3.377 c 13.86,4.018 24.883,6.859 40.588,6.859 21.107,0 42.405,-11.369 42.405,-36.771 0,-17.96 -12.422,-30.776 -33.238,-34.283 l -21.667,-3.611 c -14.127,-2.517 -15.308,-7.409 -15.308,-12.203 0,-11.593 11.498,-13.324 18.351,-13.324"
   id="path24"
   inkscape:connector-curvature="0"
   style="fill:#ffffff;fill-opacity:1" />
	<path
   clip-path="url(#SVGID_2_)"
   d="m 718.754,244.155 c -34.722,0 -56.289,23.574 -56.289,61.521 0,37.945 21.338,61.519 55.685,61.519 34.596,0 56.087,-23.573 56.087,-61.519 0,-37.947 -21.258,-61.521 -55.483,-61.521 m -0.604,22.244 c 12.038,0 32.234,5.102 32.234,39.277 0,18.008 -5.489,39.476 -31.631,39.476 -26.476,0 -32.033,-21.468 -32.033,-39.476 10e-4,-14.669 4.083,-39.277 31.43,-39.277"
   id="path26"
   inkscape:connector-curvature="0"
   style="fill:#ffffff;fill-opacity:1" />
	<polygon
   clip-path="url(#SVGID_2_)"
   points="815.631,365.986 815.631,198.517 791.778,203.816 791.778,365.986 "
   id="polygon28"
   style="fill:#ffffff;fill-opacity:1" />
	<path
   clip-path="url(#SVGID_2_)"
   d="m 935.221,286.159 c 0,-26.301 -16.605,-42.004 -44.418,-42.004 -12.042,0 -24.383,3.048 -39.281,7.034 l -12.525,3.386 4.696,22.698 13.638,-3.849 c 10.142,-2.897 23.085,-6.222 33.271,-6.222 18.94,0 21.371,10.13 21.371,18.957 v 8.293 h -28.815 c -30.403,0 -47.839,13.697 -47.839,37.578 0,21.813 15.555,35.364 40.595,35.364 11.466,0 25.928,-3.508 31.627,-5.019 l 8.241,-2.212 c 3.811,-1.02 6.342,-0.766 10.316,1.291 l 14.041,8.424 9.894,-19.382 -14.812,-9.116 z m -57.495,58.992 c -16.625,0 -18.755,-7.227 -18.755,-13.522 0,-7.484 2.849,-15.134 23.985,-15.134 h 29.017 v 22.908 l -8.592,1.879 c -9.943,2.387 -19.775,3.869 -25.655,3.869"
   id="path30"
   inkscape:connector-curvature="0"
   style="fill:#ffffff;fill-opacity:1" />
	<path
   clip-path="url(#SVGID_2_)"
   d="m 1020.795,244.557 c -18.006,0 -27.261,0.79 -43.281,5.216 -9.832,2.606 -14.818,8.824 -14.818,18.48 v 97.734 h 23.651 v -94.391 c 11.849,-2.781 22.472,-3.388 34.448,-3.388 h 5.589 v -23.652 h -5.589 z"
   id="path32"
   inkscape:connector-curvature="0"
   style="fill:#ffffff;fill-opacity:1" />
	<path
   clip-path="url(#SVGID_2_)"
   d="m 1165.161,224.314 c 2.415,-6.237 6.64,-9.053 11.87,-9.053 5.432,0 10.06,2.816 10.06,10.461 v 140.229 h -12.273 V 231.355 l -48.485,129.165 c -1.608,4.225 -4.427,6.237 -9.254,6.237 -5.029,0 -8.05,-2.214 -9.458,-6.237 L 1059.94,231.355 v 134.596 h -12.071 V 225.722 c 0,-7.846 4.829,-10.461 10.663,-10.461 6.438,0 10.461,2.816 12.675,9.053 l 46.072,127.956 z"
   id="path34"
   inkscape:connector-curvature="0"
   style="fill:#ffffff;fill-opacity:1" />
	<path
   clip-path="url(#SVGID_2_)"
   d="m 1261.52,365.951 h -38.227 c -8.248,0 -13.077,-4.425 -13.077,-12.071 V 228.538 c 0,-7.846 4.829,-12.271 13.077,-12.271 h 38.828 c 39.435,0 65.388,27.964 65.388,75.244 0,47.481 -27.16,74.44 -65.989,74.44 m -2.013,-138.216 h -36.214 v 126.547 h 37.621 c 34.002,0 53.518,-22.937 53.518,-62.771 0,-38.629 -20.119,-63.776 -54.925,-63.776"
   id="path36"
   inkscape:connector-curvature="0"
   style="fill:#ffffff;fill-opacity:1" />
</g>
</svg>