<?xml version="1.0" encoding="UTF-8" standalone="no"?>
<!-- Created with Inkscape (http://www.inkscape.org/) -->

<svg
   width="39.737873mm"
   height="37.062103mm"
   viewBox="0 0 39.737873 37.062104"
   version="1.1"
   id="svgIcon"
   inkscape:version="1.1 (c68e22c387, 2021-05-23)"
   sodipodi:docname="pvCardDashboardThemeIcon.svg"
   inkscape:export-filename="C:\Users\user pc\Desktop\pvCardDashboardTheme.png"
   inkscape:export-xdpi="96"
   inkscape:export-ydpi="96"
   xmlns:inkscape="http://www.inkscape.org/namespaces/inkscape"
   xmlns:sodipodi="http://sodipodi.sourceforge.net/DTD/sodipodi-0.dtd"
   xmlns:xlink="http://www.w3.org/1999/xlink"
   xmlns="http://www.w3.org/2000/svg"
   xmlns:svg="http://www.w3.org/2000/svg">
  <sodipodi:namedview
     id="namedview7"
     pagecolor="#ffffff"
     bordercolor="#666666"
     borderopacity="1.0"
     inkscape:pageshadow="2"
     inkscape:pageopacity="0.0"
     inkscape:pagecheckerboard="0"
     inkscape:document-units="mm"
     showgrid="false"
     fit-margin-top="0"
     fit-margin-left="0"
     fit-margin-right="0"
     fit-margin-bottom="0"
     inkscape:zoom="0.70710678"
     inkscape:cx="-10.606602"
     inkscape:cy="205.76807"
     inkscape:window-width="1920"
     inkscape:window-height="1009"
     inkscape:window-x="3832"
     inkscape:window-y="-3"
     inkscape:window-maximized="1"
     inkscape:current-layer="layer1" />
  <defs
     id="defs2">
    <polygon
       id="path-1"
       points="0.47771,0.10143 24.5,0.10143 24.5,28.571 0.47771,28.571 " />
   
  <g
     inkscape:label="Layer 1"
     inkscape:groupmode="layer"
     id="layer1"
     transform="translate(-0.36882392,-103.56768)">
    <g
       id="g85579"
       inkscape:export-filename="C:\Users\user pc\Desktop\dashboardThemIcon.png"
       inkscape:export-xdpi="96"
       inkscape:export-ydpi="96"
       transform="translate(34.925,-20.108333)">
      <path
         style="opacity:1;fill:#333333;fill-opacity:1;stroke:none;stroke-width:0.266999;stroke-linecap:round;stroke-linejoin:round;stroke-miterlimit:4;stroke-dasharray:none;stroke-opacity:1"
         d="m -28.22975,157.96119 c -0.29537,-0.0896 -1.292701,-1.0917 -2.025782,-2.03549 -1.102797,-1.41977 -2.128073,-3.13473 -2.679185,-4.48142 -0.1148,-0.28053 -0.23424,-0.53833 -0.265424,-0.57289 -0.03118,-0.0346 -0.05669,-0.10447 -0.05669,-0.15537 0,-0.0509 -0.04149,-0.18632 -0.0922,-0.30096 -0.190585,-0.43083 -0.551442,-1.63611 -0.735735,-2.45739 -0.05715,-0.25466 -0.130797,-0.58208 -0.163669,-0.72761 -0.318529,-1.41012 -0.410744,-4.64869 -0.177043,-6.2177 0.402611,-2.70306 1.109358,-4.81025 2.400872,-7.1583 0.469923,-0.85435 1.536231,-2.39355 2.160137,-3.11813 0.53617,-0.62268 2.201937,-2.228 2.825351,-2.72282 0.770358,-0.61145 2.180973,-1.55637 2.843905,-1.90503 0.697529,-0.36685 1.310066,-0.67307 1.34638,-0.67307 0.0186,0 0.22193,-0.0861 0.451845,-0.19131 1.10821,-0.5072 2.899241,-1.03728 4.353703,-1.28854 2.152864,-0.37192 4.691073,-0.37221 6.713802,-7.9e-4 2.291461,0.42078 4.5017266,1.21616 6.4492186,2.32079 0.2905258,0.16479 1.5429521,0.96141 1.5875,1.00975 0.018203,0.0197 0.3190108,0.24889 0.6684883,0.50922 2.24725178,1.67401 4.3182249,4.15409 5.6799956,6.80206 0.5467165,1.06308 1.1648942,2.64544 1.4341898,3.67109 0.2023216,0.77056 0.481076,2.13856 0.5555139,2.7262 0.2283274,1.80247 0.1625467,4.56993 -0.1435206,6.03812 -0.552233,2.64905 -1.0981478,4.15232 -2.2939957,6.31693 -0.4820073,0.87249 -1.4877865,2.34088 -2.04941484,2.99206 -0.69283262,0.8033 -1.18779394,1.31711 -1.40386063,1.4573 -0.48442823,0.31433 -1.19507523,0.26037 -1.64519763,-0.12492 -0.3647467,-0.31221 -0.505423,-0.62579 -0.5008087,-1.11637 0.00437,-0.46509 0.1024652,-0.65101 0.6380427,-1.20933 0.1995223,-0.20799 0.6215936,-0.70559 0.9379374,-1.10577 0.3163464,-0.40018 0.60944915,-0.76963 0.65134592,-0.82098 0.0595551,-0.073 0.0481727,-0.11338 -0.0521811,-0.18503 -0.17745604,-0.1267 -1.23050032,-0.75313 -1.35205522,-0.8043 -0.2665466,-0.11222 -1.1167851,-0.65039 -1.3120238,-0.83047 -0.3206273,-0.29574 -0.4240768,-0.53764 -0.4284424,-1.00187 -0.00331,-0.35189 0.026035,-0.45516 0.2114074,-0.74404 0.2647712,-0.41261 0.7313506,-0.67347 1.2046002,-0.67347 0.3552137,0 0.5745295,0.10666 2.37497942,1.15504 0.51915747,0.3023 0.78967541,0.42481 0.85200595,0.38586 0.0502311,-0.0314 0.14828837,-0.2049 0.21790024,-0.38558 0.0696145,-0.18067 0.16621649,-0.41779 0.21467229,-0.52693 0.2297271,-0.51744 0.529553,-1.49251 0.7728903,-2.51354 0.1010099,-0.42385 0.2528199,-1.35214 0.2991749,-1.82943 l 0.042767,-0.44037 -1.61311695,-0.0249 c -1.80184955,-0.0278 -1.90637845,-0.0496 -2.32941815,-0.4852 -0.6491023,-0.66836 -0.43357,-1.77465 0.4325461,-2.22016 0.2218585,-0.11411 0.40120365,-0.12623 1.86861984,-0.12623 H 2.2634786 v -0.26027 c 0,-0.50065 -0.3817832,-2.50336 -0.593471,-3.11317 -0.031573,-0.0909 -0.109101,-0.34395 -0.1722888,-0.56223 -0.063185,-0.21829 -0.1399804,-0.42516 -0.1706562,-0.45972 -0.030673,-0.0346 -0.055772,-0.10316 -0.055772,-0.15246 0,-0.0493 -0.061682,-0.22937 -0.1370727,-0.40018 -0.07539,-0.17081 -0.18276095,-0.41474 -0.23860126,-0.54207 -0.82565345,-1.8827 -1.94346244,-3.50856 -3.46001174,-5.0326 -1.3329682,-1.33956 -2.3445073,-2.15256 -2.4554947,-1.97355 -0.032023,0.0516 -0.3932211,0.67309 -0.8026638,1.38097 -0.8858118,1.53149 -1.0285122,1.67038 -1.7560131,1.70912 -0.5495978,0.0293 -0.9385512,-0.15182 -1.2373822,-0.5761 -0.178943,-0.25406 -0.1984375,-0.33181 -0.1984375,-0.79142 0,-0.48365 0.01487,-0.53488 0.2913142,-1.00302 0.1602211,-0.27135 0.3400504,-0.58265 0.3996214,-0.69179 0.059568,-0.10914 0.2815219,-0.4913 0.4932309,-0.84926 0.2138019,-0.36149 0.3596085,-0.67578 0.3279802,-0.70696 -0.090009,-0.0888 -1.0962323,-0.50537 -1.747991,-0.72373 -1.1171873,-0.37429 -2.8664303,-0.75631 -3.6998333,-0.80802 l -0.297656,-0.0185 -0.03307,1.68551 c -0.03187,1.62402 -0.03873,1.6946 -0.188172,1.93497 -0.497898,0.80083 -1.595681,0.93018 -2.228363,0.26256 -0.386076,-0.40739 -0.39293,-0.4442 -0.416081,-2.2345 l -0.02143,-1.65633 -0.243163,0.02 c -1.389401,0.11463 -3.477642,0.65053 -4.972592,1.27613 -0.492101,0.20593 -0.583118,0.29406 -0.478264,0.46311 0.04476,0.0722 0.108953,0.18332 0.14264,0.24698 0.06684,0.12632 0.552405,0.96552 0.991089,1.71291 0.152593,0.25998 0.30883,0.58636 0.347193,0.72531 0.146202,0.52949 -0.08667,1.14776 -0.571632,1.51766 -0.186834,0.1425 -0.32852,0.18623 -0.686437,0.21184 -0.835647,0.0598 -1.047989,-0.13196 -1.996655,-1.803 -0.37176,-0.65485 -0.714639,-1.23223 -0.761955,-1.28308 -0.07281,-0.0782 -0.14614,-0.0478 -0.477446,0.19844 -0.854863,0.63529 -1.761331,1.46651 -2.497309,2.28998 -0.573942,0.64218 -1.287267,1.5574 -1.287267,1.65161 0,0.0543 0.360693,0.28401 1.025261,0.65281 0.181901,0.10094 0.509323,0.29059 0.727604,0.42143 0.218281,0.13085 0.477612,0.27911 0.576291,0.32948 0.473774,0.24182 0.84178,0.81128 0.844392,1.30663 0.0045,0.85524 -0.898258,1.61072 -1.67953,1.40551 -0.287475,-0.0755 -0.383503,-0.12633 -1.913914,-1.01295 -0.540174,-0.31294 -1.005449,-0.56898 -1.033947,-0.56898 -0.137279,0 -0.947851,2.22435 -1.187913,3.25984 -0.135231,0.58332 -0.301014,1.56376 -0.368726,2.18066 l -0.04175,0.38033 h 1.680139 1.680138 l 0.29246,0.1958 c 0.453948,0.3039 0.617567,0.59731 0.643652,1.15425 0.02,0.42737 0.0044,0.49631 -0.176019,0.77736 -0.119687,0.18644 -0.32426,0.38262 -0.517306,0.49609 l -0.319325,0.1877 -1.638599,0.0225 -1.638602,0.0225 0.03899,0.34132 c 0.127355,1.11496 0.309592,2.03055 0.601133,3.02024 0.23345,0.79248 0.836134,2.32576 0.928151,2.3613 0.04235,0.0163 0.578136,-0.26071 1.190625,-0.61572 0.612486,-0.355 1.24756,-0.71427 1.411271,-0.79837 1.152266,-0.59194 2.453712,0.63857 1.919701,1.81507 -0.121965,0.2687 -0.562142,0.74246 -0.690452,0.74313 -0.03333,2e-4 -0.271452,0.13115 -0.529166,0.29105 -0.257715,0.15991 -0.587635,0.35698 -0.733156,0.43794 -0.788865,0.43889 -1.091406,0.62881 -1.091406,0.68512 0,0.14247 0.966288,1.35191 1.750629,2.19115 0.366506,0.39217 0.480282,0.59145 0.535765,0.93842 0.06649,0.41578 -0.07767,0.80749 -0.424746,1.15413 -0.424669,0.42414 -0.895183,0.5431 -1.464773,0.37035 z"
         id="path85299" />
      <path
         style="opacity:1;fill:#333333;fill-opacity:1;stroke:none;stroke-width:0.266999;stroke-linecap:round;stroke-linejoin:round;stroke-miterlimit:4;stroke-dasharray:none;stroke-opacity:1"
         d="m -15.543874,146.31249 c -0.881528,-0.29482 -1.519711,-0.90218 -1.86259,-1.77261 -0.340087,-0.86335 -0.189846,-1.90019 0.39134,-2.7007 0.826596,-1.13853 2.397575,-1.49602 3.650525,-0.8307 l 0.417748,0.22183 0.246441,-0.11768 c 0.135541,-0.0647 0.380386,-0.17764 0.544097,-0.25091 0.484066,-0.21666 2.3106989,-1.0421 2.811198,-1.27035 0.4769855,-0.21753 0.6026017,-0.27395 1.2236979,-0.54963 0.2000911,-0.0888 0.4977473,-0.22201 0.6614583,-0.29601 0.9065286,-0.40972 3.1314733,-1.41363 3.4726562,-1.56688 0.2182812,-0.098 0.5534977,-0.2528 0.7449264,-0.3439 0.9070922,-0.4317 0.4056512,-0.039 -3.5862048,2.80857 -0.4745884,0.33854 -0.9088622,0.65108 -0.9650544,0.69453 -0.056192,0.0434 -0.2496688,0.18229 -0.4299479,0.30855 -0.1802792,0.12625 -0.3575474,0.25339 -0.3939276,0.28252 -0.03638,0.0291 -0.767961,0.55811 -1.6257351,1.1755 -1.519105,1.09339 -1.558814,1.1278 -1.529757,1.32578 0.0164,0.11178 -0.0082,0.38736 -0.05466,0.61239 -0.23349,1.13075 -1.045813,2.00364 -2.153954,2.31457 -0.532178,0.14932 -1.023845,0.1352 -1.562262,-0.0449 z m 1.291087,-1.3028 c 0.138436,-0.0384 0.267984,-0.11232 0.287883,-0.16418 0.0199,-0.0519 -0.108249,-0.34021 -0.284776,-0.64078 -0.373148,-0.63537 -0.490215,-0.84047 -0.850122,-1.48938 -0.145521,-0.26238 -0.290825,-0.47755 -0.322898,-0.47817 -0.03207,-5.3e-4 -0.185563,0.12613 -0.341093,0.28166 -0.382228,0.38222 -0.546264,0.91101 -0.422251,1.36116 0.252285,0.91577 1.041937,1.3772 1.933257,1.12969 z"
         id="path85338" />
      <path
         style="opacity:1;fill:#333333;fill-opacity:1;stroke:none;stroke-width:0.266999;stroke-linecap:round;stroke-linejoin:round;stroke-miterlimit:4;stroke-dasharray:none;stroke-opacity:1"
         d="m -22.408917,160.71322 c -0.464624,-0.16081 -0.860422,-0.50273 -0.996619,-0.86096 -0.03394,-0.0893 -0.06171,-0.99676 -0.06171,-2.01663 0,-2.07589 0.0074,-2.11631 0.465137,-2.52982 0.139208,-0.12576 0.366832,-0.26024 0.505831,-0.29884 0.33469,-0.0929 15.2370414,-0.099 15.5601691,-0.006 0.3888925,0.11154 0.7198783,0.39163 0.901528,0.76291 l 0.170008,0.34748 -0.020479,1.81028 c -0.022278,1.97029 -0.027091,1.9973 -0.4263707,2.39658 -0.4370096,0.43701 0.2047901,0.40467 -8.2922824,0.41777 -4.238294,0.007 -7.750638,-0.004 -7.805208,-0.0225 z"
         id="path85377" />
    </g>
  </g>
 
</svg>
